<?xml version="1.0" standalone="no"?>
<!DOCTYPE svg PUBLIC "-//W3C//DTD SVG 20010904//EN"
 "http://www.w3.org/TR/2001/REC-SVG-20010904/DTD/svg10.dtd">
<svg version="1.0" xmlns="http://www.w3.org/2000/svg"
 width="168.000000pt" height="168.000000pt" viewBox="0 0 168.000000 168.000000"
 preserveAspectRatio="xMidYMid meet">
<metadata>
Created by potrace 1.14, written by Peter Selinger 2001-2017
</metadata>
<g transform="translate(0.000000,168.000000) scale(0.100000,-0.100000)"
fill="#000000" stroke="none">
<path d="M40 840 l0 -840 800 0 800 0 0 840 0 840 -800 0 -800 0 0 -840z
m1058 685 c160 6 183 5 213 -11 38 -19 51 -33 79 -86 12 -23 28 -38 39 -38 23
0 70 -46 86 -84 10 -22 11 -78 7 -211 l-5 -182 37 -28 c47 -36 47 -63 0 -95
l-37 -25 6 -190 c4 -173 3 -193 -14 -227 -21 -40 -54 -68 -81 -68 -11 0 -26
-16 -39 -44 -12 -26 -37 -56 -60 -72 l-39 -27 -180 7 c-195 8 -202 7 -250 -47
l-29 -32 -44 43 -44 43 -179 -7 c-155 -6 -184 -5 -211 9 -35 19 -83 72 -83 93
0 7 -17 22 -39 33 -21 11 -51 35 -66 52 l-27 33 4 198 3 198 -37 30 c-21 18
-38 37 -38 44 0 7 18 29 40 48 l40 36 -6 189 c-6 186 -6 188 17 223 13 19 43
44 66 55 30 13 44 27 48 46 7 32 49 74 90 89 21 8 83 10 209 4 l178 -7 39 43
40 43 44 -43 43 -43 180 8z"/>
<path d="M811 1531 c-6 -10 -25 -25 -43 -34 -29 -14 -55 -14 -206 -5 -166 10
-173 9 -206 -11 -30 -19 -42 -37 -59 -93 -3 -9 -19 -19 -36 -23 -16 -3 -44
-21 -62 -38 l-31 -32 6 -188 c5 -158 4 -193 -9 -217 -9 -17 -19 -30 -23 -30
-4 0 -14 -5 -22 -10 -12 -8 -9 -15 20 -45 l35 -36 -3 -198 -4 -197 26 -31 c16
-19 42 -35 70 -42 39 -10 43 -13 38 -36 -3 -20 4 -33 34 -62 l39 -36 150 7
c82 3 166 9 185 12 30 5 41 0 78 -32 l43 -37 28 27 c41 40 72 44 236 33 83 -6
162 -7 177 -4 41 11 79 48 87 87 6 29 12 36 44 43 22 5 48 22 63 40 l27 32 -5
194 -5 194 33 37 33 36 -32 32 -32 32 3 199 c4 195 3 198 -20 224 -12 15 -41
33 -63 40 -30 11 -40 20 -41 36 -2 28 -33 72 -65 89 -24 13 -164 11 -325 -4
-60 -6 -63 -5 -102 30 -46 42 -48 42 -61 17z m66 -53 c40 -24 66 -26 265 -13
153 9 161 6 195 -58 23 -46 9 -41 -27 9 l-33 47 -86 -7 c-260 -20 -264 -20
-310 3 l-43 22 -55 -22 c-57 -23 -78 -23 -313 -3 -92 8 -116 -7 -128 -75 -7
-42 -9 -44 -55 -56 -27 -7 -54 -18 -60 -24 -9 -9 -12 -71 -12 -214 0 -178 -2
-205 -18 -228 -17 -26 -17 -28 2 -60 19 -31 21 -50 21 -237 l0 -202 26 -10
c14 -6 41 -10 60 -10 19 0 34 -5 34 -10 0 -15 -81 -1 -110 20 -25 17 -25 17
-30 221 -4 174 -8 208 -23 230 -17 26 -17 28 2 60 19 31 21 50 21 236 l0 202
26 20 c15 12 35 21 46 21 35 0 58 19 58 49 0 16 10 41 22 56 l21 27 191 -6
c180 -7 193 -6 221 13 39 25 51 25 92 -1z m565 -170 l26 -30 -5 -188 c-6 -184
-6 -188 17 -220 l23 -32 -23 -40 c-22 -40 -23 -46 -17 -229 l6 -187 -24 -26
c-13 -14 -34 -26 -47 -26 -13 0 -33 -3 -45 -6 -13 -4 -23 -2 -23 4 0 6 19 13
43 17 80 13 80 15 72 222 -7 177 -7 183 16 222 l23 41 -23 49 c-23 47 -23 54
-16 225 7 176 7 177 -16 202 -17 18 -33 24 -66 24 -24 0 -43 5 -43 11 0 7 17
8 48 4 35 -5 54 -14 74 -37z m-414 -60 c83 -60 122 -103 122 -135 0 -22 11
-38 44 -66 88 -73 120 -200 75 -295 -19 -39 -20 -48 -9 -82 16 -47 8 -115 -19
-168 -37 -73 -96 -105 -201 -108 -41 -2 -94 -6 -117 -9 -36 -6 -45 -4 -67 19
l-26 25 0 385 c0 226 4 395 10 410 5 14 24 35 42 46 43 27 86 21 146 -22z
m-261 8 l28 -24 3 -410 c3 -452 6 -428 -62 -439 -32 -5 -36 -3 -36 16 0 17 6
21 29 21 34 0 41 14 41 81 0 48 -1 49 -31 49 -46 0 -88 29 -99 69 -17 62 7 66
36 6 14 -31 21 -35 55 -35 l39 0 0 235 0 235 -29 0 c-42 0 -61 10 -61 31 0 16
4 17 26 9 39 -15 64 3 64 46 0 78 -46 115 -98 78 -12 -8 -29 -14 -38 -12 -14
3 -13 7 5 30 20 25 39 33 83 37 9 0 30 -10 45 -23z m-191 -106 c-32 -38 -33
-78 -5 -114 19 -24 27 -27 68 -24 58 4 65 -13 12 -30 -33 -11 -45 -11 -67 0
-44 21 -69 63 -69 115 0 38 5 49 34 75 44 40 65 23 27 -22z m-76 -118 c0 -5
-13 -21 -30 -37 -42 -40 -60 -85 -60 -150 0 -49 4 -60 29 -86 24 -24 38 -29
76 -29 53 0 58 -19 9 -32 -81 -22 -154 55 -154 161 1 69 70 181 112 181 10 0
18 -4 18 -8z m111 -138 c40 -36 64 -124 38 -140 -15 -9 -25 10 -33 57 -8 47
-37 69 -93 69 -43 0 -60 11 -47 31 11 18 110 6 135 -17z m-181 -281 c0 -27 9
-65 21 -90 35 -73 94 -100 177 -79 26 6 32 5 32 -8 0 -46 -125 -48 -184 -2
-52 39 -76 93 -76 166 0 47 3 60 15 60 11 0 15 -12 15 -47z m-43 -399 c14 -4
80 -3 147 2 174 12 206 10 250 -11 37 -18 39 -18 94 1 62 21 82 21 259 9 137
-9 159 -3 183 54 11 27 30 43 30 26 0 -14 -30 -62 -49 -79 -20 -18 -32 -19
-188 -12 -157 6 -171 5 -230 -16 l-63 -22 -39 22 c-38 21 -46 22 -223 16
l-184 -7 -22 28 c-13 16 -22 41 -21 59 1 28 2 27 16 -16 11 -37 20 -49 40 -54z"/>
<path d="M905 1238 c-45 -24 -45 -23 -45 -413 0 -282 3 -375 13 -387 16 -21
48 -30 67 -18 17 11 5 26 -25 32 -17 3 -20 12 -23 59 l-3 56 39 6 c40 7 75 37
87 75 5 16 2 22 -9 22 -9 0 -19 -12 -22 -26 -7 -25 -38 -44 -75 -44 -18 0 -19
9 -19 225 l0 225 26 0 c14 0 35 6 47 12 20 12 19 13 -23 18 l-45 5 -3 52 c-3
47 0 54 24 69 25 17 28 17 56 1 36 -21 48 -21 48 -2 0 16 -49 45 -77 45 -10 0
-27 -6 -38 -12z"/>
<path d="M1050 1164 c0 -3 12 -20 26 -37 50 -59 11 -127 -75 -127 -43 -1 -45
-2 -27 -15 48 -37 125 -5 146 60 13 40 6 71 -23 103 -19 20 -47 30 -47 16z"/>
<path d="M1150 1015 c0 -9 7 -18 15 -21 8 -3 26 -30 41 -60 22 -45 26 -63 20
-101 -9 -64 -37 -93 -93 -93 -43 0 -57 -12 -27 -24 53 -20 115 11 140 70 18
43 18 80 -1 135 -23 68 -95 139 -95 94z"/>
<path d="M1044 892 c-12 -9 -27 -27 -33 -39 -13 -26 -15 -93 -2 -93 11 0 21
25 21 49 0 36 38 70 82 73 23 2 43 9 46 16 6 20 -89 15 -114 -6z"/>
<path d="M1218 674 c-3 -5 -9 -31 -13 -59 -8 -59 -24 -91 -60 -125 -23 -22
-36 -25 -91 -24 -65 1 -79 -7 -45 -26 37 -19 95 -12 143 19 52 33 76 70 84
133 6 42 -7 101 -18 82z"/>
</g>
</svg>
